<?xml version="1.0" encoding="UTF-8"?>
<svg width="14px" height="30px" viewBox="0 0 14 30" version="1.1" xmlns="http://www.w3.org/2000/svg" xmlns:xlink="http://www.w3.org/1999/xlink">
    <!-- Generator: Sketch 60.1 (88133) - https://sketch.com -->
    <title>facebook</title>
    <desc>Created with Sketch.</desc>
    <g id="Footer-test-+-SKeumorphic-test" stroke="none" stroke-width="1" fill="none" fill-rule="evenodd">
        <g id="Page-Kit-V2---1--Copy-2" transform="translate(-600.000000, -555.000000)" fill="#A1A4B5" fill-rule="nonzero">
            <g id="Social-Network" transform="translate(222.000000, 555.000000)">
                <g id="facebook" transform="translate(378.000000, 0.000000)">
                    <path d="M13.9087227,0.013961346 C13.9015774,0.0140151562 13.8944317,0.0140151562 13.8872864,0.013961346 C12.2512101,0.0105177622 10.6144424,-0.0156534744 8.9776746,0.013961346 C7.90862393,0.0339341318 6.87345649,0.266720394 5.93509829,0.810806628 C4.10816951,1.87211914 3.30741875,3.55947518 3.146992,5.56915067 C3.04949126,6.80195365 3.10619382,8.04853097 3.09374691,9.28822112 L3.09374691,9.73795316 L0,9.73795316 L0,15.0410722 L2.9547565,15.0410722 L2.9547565,30 L9.22592117,30 L9.22592117,15.0107686 L13.4516448,15.0107686 C13.6355823,13.232502 13.8153709,11.4893599 14,9.70213989 L9.2349106,9.70213989 C9.2349106,8.54922805 9.1968784,7.4369505 9.2473575,6.32742781 C9.28262373,5.5581312 9.8005532,5.14972216 10.5909315,5.14421243 C11.3052455,5.13939141 12.0202509,5.14421243 12.7345649,5.14421243 L13.9101057,5.14421243 L13.9087227,0.013961346 Z" id="Path"></path>
                </g>
            </g>
        </g>
    </g>
</svg>