<?xml version="1.0" encoding="UTF-8"?>
<svg width="31px" height="30px" viewBox="0 0 31 30" version="1.1" xmlns="http://www.w3.org/2000/svg" xmlns:xlink="http://www.w3.org/1999/xlink">
    <!-- Generator: Sketch 60.1 (88133) - https://sketch.com -->
    <title>Instagram_simple_icon</title>
    <desc>Created with Sketch.</desc>
    <g id="Footer-test-+-SKeumorphic-test" stroke="none" stroke-width="1" fill="none" fill-rule="evenodd">
        <g id="Page-Kit-V2---1--Copy-2" transform="translate(-469.000000, -555.000000)" fill="#A1A4B5" fill-rule="nonzero">
            <g id="Social-Network" transform="translate(222.000000, 555.000000)">
                <g id="Instagram_simple_icon" transform="translate(247.000000, 0.000000)">
                    <path d="M15.4999077,2.70269787 C19.6385734,2.70269787 20.1287579,2.71805986 21.7633419,2.79022549 C23.2745646,2.85697274 24.0952098,3.101276 24.6414453,3.30669795 C25.3146777,3.5471619 25.9236639,3.93058479 26.4236323,4.42877813 C26.938428,4.91262233 27.3346285,5.50196844 27.5831059,6.1534889 C27.7953736,6.6820485 28.0478798,7.47628716 28.1167899,8.93877235 C28.1913604,10.5205214 28.2071728,10.9948972 28.2071728,15.0002084 C28.2071728,19.0055196 28.1913604,19.4797764 28.1167899,21.0616444 C28.0478183,22.5241296 27.7953121,23.3183088 27.5831059,23.8469279 C27.0616584,25.1551036 25.9932162,26.1890883 24.6414453,26.6937189 C24.0952714,26.8991408 23.2745646,27.1435036 21.7633419,27.2101913 C20.1291885,27.2823569 19.6390041,27.2976594 15.4999077,27.2976594 C11.3608114,27.2976594 10.8708115,27.2823569 9.23647352,27.2101913 C7.72525082,27.1434441 6.90460558,26.8990813 6.35837013,26.6937189 C5.68513673,26.4532567 5.07615019,26.0698336 4.57618315,25.5716387 C4.06138908,25.0877932 3.66518883,24.4984474 3.4167095,23.8469279 C3.20444184,23.3183683 2.95193562,22.5241296 2.88302553,21.0616444 C2.80845498,19.479955 2.79264258,19.0055196 2.79264258,15.0002084 C2.79264258,10.9948972 2.80845498,10.5206404 2.88302553,8.93877235 C2.95199714,7.47628716 3.20444184,6.68210805 3.4167095,6.1534889 C3.66521468,5.50193597 4.06145834,4.91256787 4.57630621,4.42871858 C5.07627592,3.93052681 5.68526167,3.54710417 6.35849319,3.3066384 C6.90466711,3.10121646 7.72537387,2.85685365 9.23659657,2.79016595 C10.8710576,2.71800032 11.361242,2.70269787 15.5000308,2.70269787 M15.5000308,0 C11.2904862,0 10.7624627,0.0172673522 9.10948208,0.0902665722 C7.45963937,0.163146707 6.33295954,0.416679071 5.34705316,0.787510346 C4.31282351,1.16415484 3.37593696,1.75458865 2.60172474,2.51763949 C1.81306743,3.2668361 1.20278698,4.17351124 0.813446596,5.17443003 C0.430564955,6.12860009 0.168583592,7.21894407 0.0935823517,8.81557872 C0.017842789,10.41525 0,10.9262446 0,15.0000298 C0,19.073815 0.017842789,19.5848095 0.0935823517,21.1844808 C0.168891226,22.7811155 0.43087259,23.8714594 0.814061864,24.82557 C1.20325985,25.8264445 1.81336971,26.7331157 2.60184779,27.4823605 C3.3760575,28.2454143 4.31294477,28.8358486 5.34717621,29.2124897 C6.33314412,29.5833209 7.45982395,29.8368533 9.10960514,29.9097334 C10.7628318,29.9827326 11.2906707,30 15.5001538,30 C19.7096369,30 20.2377219,29.9827326 21.8907025,29.9097334 C23.5405452,29.8368533 24.667225,29.5833209 25.6531314,29.2124897 C27.7351229,28.4332241 29.3810111,26.8404165 30.1862458,24.82557 C30.569435,23.8713999 30.8314164,22.7810559 30.9067253,21.1844808 C30.9821572,19.5845713 31,19.0737554 31,15.0000298 C31,10.9263041 30.9821572,10.41525 30.9067253,8.81557872 C30.8314164,7.21894407 30.569435,6.12860009 30.1862458,5.17448957 C29.7970531,4.17361248 29.1869425,3.26694018 28.3984598,2.51769904 C27.6242318,1.75449606 26.6872771,1.16393705 25.6529468,0.787212633 C24.6669789,0.416679071 23.5402991,0.163146707 21.8904564,0.0905642852 C20.2374758,0.0172673522 19.7094523,0 15.4999077,0 L15.4999077,0 L15.5000308,0 Z" id="Shape"></path>
                    <path d="M16,7 C11.581722,7 8,10.581722 8,15 C8,19.418278 11.581722,23 16,23 C20.418278,23 24,19.418278 24,15 C24,10.581722 20.418278,7 16,7 Z M16,20.1929347 C13.1320294,20.1929347 10.8071271,17.8679294 10.8071271,14.9999588 C10.8071271,12.1319882 13.1321119,9.80706528 16.0000825,9.80706528 C18.8680531,9.80706528 21.1929966,12.1320294 21.1929966,15 C21.1929966,17.8679887 18.8679887,20.1929347 16,20.1929347 Z" id="Shape"></path>
                    <ellipse id="Oval" cx="24" cy="6.5" rx="2" ry="1.5"></ellipse>
                </g>
            </g>
        </g>
    </g>
</svg>