<?xml version="1.0" encoding="UTF-8"?>
<svg width="30px" height="30px" viewBox="0 0 30 30" version="1.1" xmlns="http://www.w3.org/2000/svg" xmlns:xlink="http://www.w3.org/1999/xlink">
    <!-- Generator: Sketch 60.1 (88133) - https://sketch.com -->
    <title>iconmonstr-linkedin-3@3x</title>
    <desc>Created with Sketch.</desc>
    <g id="Footer-test-+-SKeumorphic-test" stroke="none" stroke-width="1" fill="none" fill-rule="evenodd">
        <g id="Page-Kit-V2---1--Copy-2" transform="translate(-222.000000, -555.000000)" fill="#A1A4B5" fill-rule="nonzero">
            <g id="Social-Network" transform="translate(222.000000, 555.000000)">
                <g id="iconmonstr-linkedin-3">
                    <path d="M23.75,0 L6.25,0 C2.79875,0 0,2.79875 0,6.25 L0,23.75 C0,27.20125 2.79875,30 6.25,30 L23.75,30 C27.2025,30 30,27.20125 30,23.75 L30,6.25 C30,2.79875 27.2025,0 23.75,0 Z M10,23.75 L6.25,23.75 L6.25,10 L10,10 L10,23.75 Z M8.125,8.415 C6.9175,8.415 5.9375,7.4275 5.9375,6.21 C5.9375,4.9925 6.9175,4.005 8.125,4.005 C9.3325,4.005 10.3125,4.9925 10.3125,6.21 C10.3125,7.4275 9.33375,8.415 8.125,8.415 Z M25,23.75 L21.25,23.75 L21.25,16.745 C21.25,12.535 16.25,12.85375 16.25,16.745 L16.25,23.75 L12.5,23.75 L12.5,10 L16.25,10 L16.25,12.20625 C17.995,8.97375 25,8.735 25,15.30125 L25,23.75 Z" id="Shape"></path>
                </g>
            </g>
        </g>
    </g>
</svg>