<?xml version="1.0" encoding="UTF-8"?>
<svg width="37px" height="30px" viewBox="0 0 37 30" version="1.1" xmlns="http://www.w3.org/2000/svg" xmlns:xlink="http://www.w3.org/1999/xlink">
    <!-- Generator: Sketch 60.1 (88133) - https://sketch.com -->
    <title>Twitter_Bird</title>
    <desc>Created with Sketch.</desc>
    <g id="Footer-test-+-SKeumorphic-test" stroke="none" stroke-width="1" fill="none" fill-rule="evenodd">
        <g id="Page-Kit-V2---1--Copy-2" transform="translate(-342.000000, -555.000000)" fill="#A1A4B5" fill-rule="nonzero">
            <g id="Social-Network" transform="translate(222.000000, 555.000000)">
                <g id="Twitter_Bird" transform="translate(120.000000, 0.000000)">
                    <path d="M11.6362208,30 C25.5994195,30 33.2348137,18.4592102 33.2348137,8.45182826 C33.2348137,8.12403035 33.2281214,7.79771145 33.2133835,7.47286787 C34.6956169,6.40383948 35.9839703,5.06976757 37,3.55112508 C35.6398666,4.15429985 34.1761333,4.56035464 32.6406174,4.74344868 C34.2079532,3.80583154 35.4112042,2.3226286 35.9787903,0.55444755 C34.5120957,1.42192633 32.8877799,2.05241842 31.1583828,2.39276448 C29.7730894,0.920634392 27.80097,0 25.6172093,0 C21.4250679,0 18.0254739,3.39165823 18.0254739,7.57253589 C18.0254739,8.16685015 18.0920738,8.74492489 18.2223163,9.2993712 C11.9130155,8.98264985 6.31855826,5.96899206 2.57486301,1.38648925 C1.92291569,2.5057214 1.54699328,3.80583154 1.54699328,5.19305907 C1.54699328,7.8205979 2.88714543,10.1402734 4.92512488,11.4972318 C3.67969396,11.4588416 2.50974178,11.1177548 1.48705081,10.5500183 C1.48593336,10.5817938 1.48593336,10.6127727 1.48593336,10.6467333 C1.48593336,14.3145066 4.10260015,17.3768916 7.57619421,18.0708739 C6.93830813,18.2443704 6.26712082,18.3373927 5.57447475,18.3373927 C5.08606988,18.3373927 4.61024501,18.2894348 4.14774138,18.2008123 C5.11418988,21.2100405 7.91659663,23.3997776 11.2392307,23.4610567 C8.64106393,25.492801 5.36801231,26.7028431 1.81079826,26.7028431 C1.19881093,26.7028431 0.594226088,26.6681146 0,26.598006 C3.35963409,28.7464023 7.34901302,30 11.6366131,30" id="path3611"></path>
                </g>
            </g>
        </g>
    </g>
</svg>
